<svg xmlns="http://www.w3.org/2000/svg" xmlns:xlink="http://www.w3.org/1999/xlink" width="781" height="137" viewBox="0 0 781 137">
  <defs>
    <clipPath id="clip-Artboard_1">
      <rect width="781" height="137"/>
    </clipPath>
  </defs>
  <g id="Artboard_1" data-name="Artboard – 1" clip-path="url(#clip-Artboard_1)">
    <path id="science-svgrepo-com_1_" data-name="science-svgrepo-com (1)" d="M42.366,9.919A26.433,26.433,0,0,0,33.087,21.27l-1.049,2.761,7.316-4.015c8.5-4.668,9.551-4.81,12.472-1.7,3.15,3.354,2.788,4.063-3.376,6.618C13.777,39.3-.4,73.482,27.365,75.75c5.765.471,6.3.735,8.887,4.391C46.6,94.773,60.708,87.588,65.98,65c1.045-4.477,2.35-6.62,7.014-11.52C87,38.766,87.408,24.845,73.948,20.985l-2.688-.771,1.286,4.271a33.419,33.419,0,0,0,2.555,6.3C78.6,36.4,66.314,52.135,52.28,60.01c-6.521,3.659-6.892,4.251-5.294,8.452l.985,2.593,4.112-2.1c4.888-2.494,5.627-2.085,3.875,2.143-1.825,4.406-5.8,8.9-7.873,8.9-5.96,0-12.041-15.753-12.07-31.272L36,40.956l5.865-3.79C47.846,33.3,56.736,29.4,57.6,30.267a40.508,40.508,0,0,1,1.709,7.142l1.23,6.662,3.4-3.5,3.4-3.505-1.277-5.708c-4.033-18.02-14.2-27.221-23.689-21.435M24.231,52.868c-6.109,8.379-5,15.132,2.5,15.132h3.417l-.693-5.75c-.381-3.163-1-7.55-1.364-9.75l-.671-4-3.185,4.368" transform="translate(28.319 20.804)" fill-rule="evenodd"/>
    <text id="sitemanifest.dev" transform="translate(135 95)" font-size="70" font-family="Kamerik205-Regular3, Kamerik205"><tspan x="0" y="0">sitemanifest.dev</tspan></text>
  </g>
</svg>
